PathFileType  4	(X/Y/Z) /workspace/opencap-mono/results/ba8f9f72-c3c0-4cdb-a5f6-69ba924cb011/d44734bd-61ee-49a5-b9fc-11194914285b/MarkerData/d44734bd-61ee-49a5-b9fc-11194914285b_5
DataRate	CameraRate	NumFrames	NumMarkers	Units	OrigDataRate	OrigDataStartFrame	OrigNumFrames
60.0	60.0	5	63	m	60.0	937	1499
Frame#	Time	sternum			r_shoulder			l_shoulder			r_elbow			l_elbow			r_melbow			l_melbow			r_wrist_radius			l_wrist_radius			r_wrist_ulna			l_wrist_ulna			C7			r_ASIS			l_ASIS			r_PSIS			l_PSIS			r_knee			l_knee			r_mknee			l_mknee			r_ankle			l_ankle			r_mankle			l_mankle			r_5meta			l_5meta			r_toe			l_toe			r_pinky			l_pinky			r_index			l_index			L4			T6			r_big_toe			l_big_toe			l_calc			r_calc			Nose			Neck			RShoulder			RElbow			RWrist			LShoulder			LElbow			LWrist			MidHip			RHip			RKnee			RAnkle			LHip			LKnee			LAnkle			REye			LEye			REar			LEar			LBigToe			LSmallToe			LHeel			RBigToe			RSmallToe			RHeel			
		X1	Y1	Z1	X2	Y2	Z2	X3	Y3	Z3	X4	Y4	Z4	X5	Y5	Z5	X6	Y6	Z6	X7	Y7	Z7	X8	Y8	Z8	X9	Y9	Z9	X10	Y10	Z10	X11	Y11	Z11	X12	Y12	Z12	X13	Y13	Z13	X14	Y14	Z14	X15	Y15	Z15	X16	Y16	Z16	X17	Y17	Z17	X18	Y18	Z18	X19	Y19	Z19	X20	Y20	Z20	X21	Y21	Z21	X22	Y22	Z22	X23	Y23	Z23	X24	Y24	Z24	X25	Y25	Z25	X26	Y26	Z26	X27	Y27	Z27	X28	Y28	Z28	X29	Y29	Z29	X30	Y30	Z30	X31	Y31	Z31	X32	Y32	Z32	X33	Y33	Z33	X34	Y34	Z34	X35	Y35	Z35	X36	Y36	Z36	X37	Y37	Z37	X38	Y38	Z38	X39	Y39	Z39	X40	Y40	Z40	X41	Y41	Z41	X42	Y42	Z42	X43	Y43	Z43	X44	Y44	Z44	X45	Y45	Z45	X46	Y46	Z46	X47	Y47	Z47	X48	Y48	Z48	X49	Y49	Z49	X50	Y50	Z50	X51	Y51	Z51	X52	Y52	Z52	X53	Y53	Z53	X54	Y54	Z54	X55	Y55	Z55	X56	Y56	Z56	X57	Y57	Z57	X58	Y58	Z58	X59	Y59	Z59	X60	Y60	Z60	X61	Y61	Z61	X62	Y62	Z62	X63	Y63	Z63	

937	15.6000000	6.4180304	1.5642856	16.9103886	6.2643100	1.5440456	16.9727570	6.5268113	1.5900056	16.7800607	6.2525769	1.2014756	16.9918138	6.6153576	1.2552256	16.8051419	6.2722348	1.2033756	16.9541531	6.5714570	1.2498956	16.8063190	6.4229119	1.0174256	17.0829933	6.6632984	1.0591556	16.9795094	6.3855359	0.9993056	17.0886583	6.6837197	1.0493156	16.9450624	6.3379835	1.5901956	16.8155209	6.4015826	1.1412556	17.0354111	6.5825046	1.1233356	16.9005352	6.3443172	1.1609356	16.8526460	6.4321329	1.1469556	16.7848352	6.3568836	0.6685156	17.0147331	6.5742966	0.6600456	16.9338254	6.4269073	0.6825656	16.9284305	6.4873926	0.6777156	16.9939074	6.3199169	0.2441456	16.8840790	6.3960657	0.2520456	16.8816316	6.3678704	0.2472856	16.8475197	6.3618913	0.2569656	16.9311151	6.3712473	0.1755956	16.9514658	6.4385716	0.1602156	16.9138985	6.4388509	0.1973056	16.9491713	6.4402493	0.1628456	16.9836530	6.4104101	0.9200456	17.1235275	6.7117203	0.9784656	16.9722094	6.4732544	0.9451556	17.1150416	6.6875986	0.9820056	17.0287418	6.4034356	1.2490056	16.8268319	6.3514855	1.4558656	16.7925996	6.4850227	0.1984356	16.9469569	6.4344262	0.1495656	17.0287470	6.3257759	0.2424556	16.8561813	6.2974739	0.2111156	16.8168559	6.4671868	1.7525856	16.9458560	6.4038717	1.4860356	16.8758708	6.2666215	1.4620456	16.9648423	6.2772356	1.2019056	16.9821165	6.4078210	0.9976156	17.0751067	6.5411220	1.5100256	16.7868993	6.5977543	1.2467156	16.8200822	6.6630778	1.0459656	16.9586630	6.4467242	1.0675656	16.9159127	6.3721961	1.0800656	16.9753881	6.3875282	0.6291756	16.9880104	6.3438017	0.2348856	16.8540827	6.5212566	1.0550756	16.8564282	6.5423025	0.6315256	16.9633945	6.3690421	0.2546756	16.9059603	6.4131669	1.7808656	16.9481954	6.4524421	1.7837856	16.8948012	6.3245898	1.7370456	16.9250969	6.4096837	1.7438056	16.8156333	6.4537417	0.1325956	17.0366837	6.4684538	0.1289956	16.9584957	6.3257759	0.2424556	16.8561813	6.4998282	0.1905856	16.9643760	6.4242542	0.1683756	16.9886846	6.3005780	0.1932056	16.8174869
938	15.6166667	6.4224630	1.5631356	16.9291827	6.2694680	1.5437156	16.9932134	6.5297597	1.5880356	16.7974235	6.2589345	1.2007456	17.0116380	6.6224205	1.2548356	16.8258908	6.2777472	1.2032156	16.9736604	6.5785251	1.2492956	16.8284054	6.4325830	1.0167456	17.0965397	6.6772875	1.0603456	16.9999572	6.3955823	0.9979056	17.1023466	6.6962254	1.0500756	16.9647633	6.3420543	1.5891256	16.8346650	6.4073435	1.1384356	17.0536992	6.5879982	1.1240756	16.9180477	6.3491466	1.1590056	16.8712280	6.4369247	1.1462456	16.8030245	6.3611560	0.6654656	17.0212823	6.5840354	0.6608756	16.9555793	6.4316928	0.6809556	16.9355831	6.4966212	0.6790756	17.0146732	6.3200643	0.2438956	16.8840705	6.4158173	0.2457056	16.9238660	6.3680081	0.2468656	16.8473191	6.3814796	0.2525956	16.9731079	6.3715958	0.1757456	16.9514518	6.4594723	0.1559956	16.9606961	6.4393123	0.1972256	16.9487024	6.4609566	0.1618656	17.0302501	6.4226132	0.9184056	17.1354300	6.7250064	0.9793356	16.9916564	6.4847452	0.9450556	17.1265788	6.7032393	0.9837556	17.0490550	6.4069952	1.2478856	16.8457707	6.3547125	1.4544556	16.8122990	6.4854871	0.1981256	16.9464342	6.4551047	0.1504356	17.0759265	6.3456998	0.2338656	16.8989926	6.2972637	0.2109356	16.8170227	6.4767942	1.7493456	16.9621421	6.4079704	1.4850256	16.8953809	6.2711880	1.4616256	16.9852657	6.2834064	1.2015056	17.0016550	6.4176649	0.9968556	17.0884247	6.5447570	1.5084156	16.8054871	6.6052952	1.2463456	16.8414623	6.6761547	1.0469656	16.9792924	6.4529332	1.0663656	16.9335712	6.3782873	1.0775456	16.9931572	6.3916863	0.6264356	16.9938111	6.3438439	0.2346756	16.8539921	6.5275833	1.0551856	16.8739761	6.5523804	0.6326956	16.9857700	6.3886933	0.2491456	16.9479604	6.4237018	1.7792156	16.9653554	6.4619570	1.7805856	16.9111435	6.3332936	1.7378256	16.9443381	6.4164128	1.7414056	16.8331702	6.4744960	0.1340256	17.0846708	6.4895017	0.1273656	17.0067522	6.3456998	0.2338656	16.8989926	6.5002830	0.1904056	16.9639923	6.4245714	0.1688556	16.9886670	6.3003032	0.1929656	16.8177449
939	15.6333333	6.4278556	1.5617856	16.9462730	6.2759191	1.5432156	17.0125296	6.5330167	1.5856956	16.8121607	6.2647113	1.2000356	17.0305073	6.6288296	1.2539856	16.8461252	6.2826194	1.2027456	16.9921741	6.5849830	1.2484156	16.8502624	6.4400558	1.0152656	17.1100209	6.6900734	1.0644956	17.0235293	6.4032726	0.9961556	17.1162602	6.7074834	1.0530056	16.9879209	6.3466230	1.5873956	16.8523861	6.4138410	1.1354456	17.0729156	6.5945669	1.1239256	16.9367566	6.3553469	1.1567056	16.8905375	6.4431341	1.1448456	16.8221727	6.3651623	0.6625756	17.0284025	6.5923231	0.6609556	16.9792385	6.4365463	0.6794056	16.9435839	6.5049390	0.6800656	17.0379602	6.3198439	0.2438556	16.8843539	6.4356510	0.2395856	16.9700888	6.3677441	0.2469456	16.8474829	6.4017199	0.2480856	17.0194761	6.3718102	0.1755256	16.9511104	6.4808982	0.1519956	17.0100115	6.4395532	0.1970656	16.9481858	6.4830512	0.1603556	17.0793146	6.4317084	0.9165056	17.1482003	6.7368677	0.9828656	17.0160993	6.4933459	0.9439156	17.1384454	6.7173711	0.9894556	17.0740712	6.4121456	1.2459456	16.8651313	6.3587456	1.4523556	16.8308849	6.4857383	0.1979856	16.9459665	6.4777793	0.1502156	17.1254270	6.3654088	0.2257456	16.9467131	6.2968185	0.2112756	16.8172675	6.4853252	1.7464856	16.9771871	6.4128285	1.4837656	16.9130495	6.2768966	1.4610356	17.0045887	6.2889975	1.2008556	17.0201177	6.4250893	0.9953856	17.1019385	6.5487604	1.5064856	16.8215103	6.6121824	1.2458356	16.8624933	6.6880382	1.0504956	17.0034036	6.4600063	1.0647456	16.9522395	6.3851484	1.0749056	17.0117597	6.3956156	0.6238756	17.0002445	6.3435280	0.2349256	16.8542200	6.5348552	1.0545756	16.8927150	6.5611982	0.6333156	17.0103274	6.4087136	0.2436756	16.9943033	6.4327008	1.7770256	16.9816447	6.4697233	1.7779356	16.9265270	6.3412215	1.7368256	16.9626877	6.4218463	1.7394256	16.8496285	6.4974069	0.1342456	17.1344691	6.5116714	0.1254556	17.0566020	6.3654088	0.2257456	16.9467131	6.5005016	0.1903056	16.9636418	6.4247350	0.1687756	16.9882688	6.2998653	0.1932456	16.8179269
940	15.6500000	6.4349963	1.5609056	16.9646307	6.2844912	1.5438056	17.0336622	6.5375353	1.5839356	16.8277179	6.2687567	1.2003956	17.0475762	6.6338894	1.2528656	16.8654435	6.2856383	1.2035256	17.0088415	6.5901194	1.2477456	16.8714040	6.4445690	1.0130056	17.1194850	6.7005041	1.0681756	17.0458818	6.4079092	0.9938156	17.1261459	6.7160171	1.0551656	17.0099404	6.3528047	1.5867956	16.8718304	6.4204193	1.1316556	17.0913201	6.6017065	1.1239756	16.9552352	6.3622460	1.1546956	16.9090585	6.4502362	1.1443156	16.8407552	6.3693293	0.6597756	17.0340420	6.6004113	0.6610956	17.0005097	6.4414192	0.6777356	16.9500049	6.5133353	0.6810856	17.0592095	6.3194272	0.2431656	16.8849872	6.4564148	0.2347956	17.0138435	6.3673045	0.2466456	16.8480944	6.4230596	0.2447056	17.0635103	6.3721165	0.1745556	16.9510215	6.5026190	0.1486856	17.0557130	6.4396172	0.1968556	16.9482377	6.5056654	0.1585256	17.1248038	6.4373581	0.9136956	17.1563627	6.7454707	0.9854756	17.0395083	6.4986335	0.9415056	17.1456335	6.7287054	0.9946356	17.0978932	6.4179443	1.2445356	16.8844742	6.3635856	1.4516056	16.8505090	6.4857806	0.1984556	16.9462070	6.5010001	0.1489556	17.1711769	6.3859146	0.2197956	16.9921569	6.2965891	0.2108356	16.8177122	6.4943816	1.7456856	16.9937790	6.4186836	1.4833456	16.9313484	6.2838041	1.4616356	17.0250555	6.2928537	1.2011156	17.0366459	6.4294315	0.9932856	17.1113670	6.5535631	1.5050556	16.8376413	6.6177124	1.2452456	16.8826488	6.6973467	1.0535456	17.0264354	6.4676555	1.0631756	16.9698854	6.3923921	1.0717856	17.0291394	6.3996478	0.6213956	17.0052031	6.3431211	0.2347056	16.8548798	6.5429146	1.0545556	16.9106405	6.5699603	0.6340056	17.0325196	6.4297440	0.2394856	17.0383146	6.4418349	1.7762056	16.9994425	6.4775758	1.7771056	16.9434292	6.3498820	1.7359856	16.9826369	6.4279508	1.7384756	16.8677238	6.5207383	0.1330356	17.1801713	6.5339486	0.1232756	17.1021988	6.3859146	0.2197956	16.9921569	6.5005729	0.1909756	16.9639620	6.4249978	0.1682156	16.9882259	6.2997887	0.1927456	16.8182332
941	15.6666667	6.4417613	1.5597056	16.9833209	6.2934494	1.5437456	17.0553391	6.5418994	1.5826756	16.8438431	6.2723260	1.2003556	17.0644120	6.6370126	1.2516356	16.8838037	6.2878059	1.2038056	17.0251341	6.5933604	1.2471256	16.8914520	6.4487901	1.0106356	17.1280846	6.7083443	1.0706256	17.0659339	6.4122840	0.9914756	17.1356227	6.7219221	1.0562156	17.0297412	6.3586984	1.5863056	16.8918686	6.4262153	1.1271056	17.1077819	6.6088482	1.1239556	16.9731411	6.3693148	1.1521656	16.9254408	6.4579667	1.1437256	16.8577771	6.3731146	0.6566656	17.0394592	6.6077711	0.6608756	17.0203379	6.4461985	0.6754656	16.9564374	6.5202097	0.6817156	17.0778072	6.3189820	0.2424256	16.8850664	6.4784992	0.2305556	17.0569670	6.3669390	0.2461856	16.8483102	6.4448919	0.2422156	17.1062516	6.3721080	0.1738156	16.9508741	6.5246898	0.1461056	17.1021073	6.4393931	0.1967456	16.9482215	6.5275108	0.1576956	17.1709716	6.4428152	0.9111356	17.1645125	6.7512698	0.9868556	17.0605065	6.5036913	0.9391656	17.1521076	6.7372884	0.9983556	17.1190972	6.4237002	1.2428356	16.9024180	6.3681053	1.4513456	16.8697078	6.4855486	0.1988956	16.9462312	6.5226178	0.1487656	17.2175255	6.4081466	0.2144356	17.0359341	6.2965153	0.2101856	16.8176337	6.5016185	1.7462756	17.0105818	6.4242856	1.4828656	16.9497169	6.2906024	1.4617056	17.0456148	6.2961298	1.2009256	17.0527382	6.4333675	0.9910456	17.1201758	6.5579641	1.5040256	16.8538057	6.6212219	1.2445156	16.9017187	6.7041099	1.0554656	17.0471881	6.4753718	1.0612456	16.9858966	6.3993271	1.0679356	17.0443890	6.4033748	0.6186256	17.0101299	6.3427786	0.2344156	16.8551173	6.5514166	1.0545556	16.9274042	6.5776211	0.6343356	17.0528854	6.4516947	0.2359856	17.0811332	6.4487852	1.7761556	17.0173804	6.4831502	1.7772456	16.9604608	6.3569804	1.7346856	17.0030493	6.4322087	1.7375056	16.8861827	6.5421850	0.1327056	17.2268153	6.5555162	0.1218056	17.1490095	6.4081466	0.2144356	17.0359341	6.5003911	0.1916756	16.9640206	6.4250081	0.1680456	16.9882748	6.2998653	0.1920456	16.8180924
